<svg width="10" height="16" viewBox="0 0 10 16" fill="none" xmlns="http://www.w3.org/2000/svg">
<path fill-rule="evenodd" clip-rule="evenodd" d="M0.558107 0.147705C0.00513666 0.460681 -0.175258 1.25727 0.19166 1.766C0.293975 1.9079 1.87433 3.3688 3.70364 5.01247L7.02958 8.00101L3.7027 10.9899C1.87301 12.6338 0.292561 14.095 0.190718 14.2369C0.0711464 14.4035 0.00532551 14.6432 0.00494831 14.9136C0.00438252 15.2855 0.0451198 15.3694 0.370358 15.6661C0.70446 15.9708 0.780652 16 1.24149 16H1.74647L5.87319 12.2361L10 8.47232V8.041C10 7.78582 9.93701 7.52281 9.84582 7.39707C9.62243 7.08883 2.47747 0.547977 2.04115 0.252202C1.61228 -0.0385846 0.967365 -0.0839958 0.558107 0.147705Z" fill="#424961"/>
</svg>
