<svg width="22" height="18" viewBox="0 0 22 18" fill="none" xmlns="http://www.w3.org/2000/svg">
<path fill-rule="evenodd" clip-rule="evenodd" d="M7.30014 17.8859C8.92729 17.9005 10.541 17.5924 12.0472 16.9794C13.5533 16.3664 14.9216 15.4609 16.0721 14.3159C17.2227 13.1708 18.1324 11.809 18.7482 10.3102C19.364 8.81131 19.6736 7.20536 19.6587 5.58612V5.00104C20.4811 4.37792 21.1966 3.62629 21.7774 2.77538C20.988 3.11683 20.1567 3.353 19.3052 3.47773C20.1806 2.93065 20.8442 2.10489 21.1881 1.13478C20.3378 1.60599 19.4274 1.9606 18.4815 2.18898C18.0831 1.7428 17.5934 1.38661 17.0453 1.14432C16.4971 0.902039 15.9032 0.779272 15.3035 0.784265C14.1538 0.801605 13.0562 1.26379 12.2431 2.07286C11.4301 2.88192 10.9657 3.97426 10.9483 5.11832C10.9215 5.43539 10.9617 5.75451 11.0661 6.05524C9.33391 5.97205 7.63958 5.52139 6.09667 4.73345C4.55376 3.94552 3.19789 2.83852 2.11994 1.48662C1.73258 2.16492 1.52991 2.93211 1.53201 3.71229C1.54754 4.4203 1.72523 5.11545 2.05154 5.7448C2.37784 6.37415 2.84417 6.9211 3.41499 7.34399C2.70759 7.32976 2.01684 7.12778 1.41416 6.75891C1.41306 7.76218 1.76604 8.73396 2.4115 9.50465C3.05695 10.2753 3.95389 10.796 4.94575 10.9757C4.56244 11.0786 4.16475 11.1182 3.76855 11.093C3.48878 11.1117 3.20818 11.0717 2.94491 10.9757C3.23269 11.8438 3.78288 12.6022 4.52025 13.1473C5.25762 13.6924 6.14618 13.9975 7.06443 14.021C5.51714 15.2237 3.61317 15.8826 1.64986 15.8948C1.29267 15.9139 0.934769 15.8742 0.590515 15.7775C2.53844 17.1852 4.89312 17.9251 7.30014 17.8859Z" fill="#0E2368"/>
</svg>
